<svg version="1.1" id="Layer_1" xmlns="http://www.w3.org/2000/svg" xmlns:xlink="http://www.w3.org/1999/xlink" x="0px" y="0px"
	 width="100%" viewBox="0 0 400 400" enable-background="new 0 0 400 400" xml:space="preserve">
<path fill="#000000" opacity="1.000000" stroke="none" 
	d="
M183.000000,401.000000 
	C122.018906,401.000000 61.537807,401.000000 1.028355,401.000000 
	C1.028355,267.727234 1.028355,134.454468 1.028355,1.090844 
	C134.231049,1.090844 267.462189,1.090844 400.846680,1.090844 
	C400.846680,134.333191 400.846680,267.666565 400.846680,401.000000 
	C328.454529,401.000000 255.977264,401.000000 183.000000,401.000000 
M255.450409,218.453354 
	C255.450409,218.453354 255.469269,218.565674 256.086395,218.338669 
	C256.661102,218.047577 257.235809,217.756470 258.314636,217.900177 
	C262.691315,218.978485 264.832703,215.830536 266.752747,212.949585 
	C267.064819,212.481323 264.765625,210.272751 263.591125,207.952103 
	C263.727356,202.642517 263.863586,197.332932 264.373413,191.295319 
	C264.250061,187.188950 264.126678,183.082581 263.862793,178.332520 
	C263.914368,177.899078 263.965942,177.465637 264.634369,176.581757 
	C265.074066,175.379623 265.882202,174.181488 265.895325,172.974716 
	C266.003204,163.050583 266.049316,153.123276 265.866028,143.201508 
	C265.841431,141.870743 264.432526,140.565552 263.743713,139.250320 
	C263.743713,139.250320 263.740387,139.329330 263.549591,138.668854 
	C260.443329,136.569611 257.138489,134.705521 254.290421,132.300522 
	C251.782700,130.182907 249.454666,129.679962 246.324905,131.273376 
	C245.963760,131.218063 245.756500,131.028061 244.840622,130.347565 
	C244.544891,130.251266 244.249176,130.154984 243.980270,130.006256 
	C243.980270,130.006256 243.939896,130.052780 243.665054,129.444000 
	C239.602020,126.075928 236.461639,121.498116 230.133331,121.432724 
	C228.292587,121.413704 226.483398,118.339142 224.533600,116.549446 
	C221.642822,115.984879 218.075241,115.239372 214.487549,114.608162 
	C212.711945,114.295761 210.899307,114.193863 209.011902,114.025490 
	C209.011902,114.025490 208.983047,113.933983 208.832413,113.509003 
	C208.223129,113.343643 207.613861,113.178291 206.229218,112.932091 
	C205.198318,112.978012 204.167419,113.023941 202.478897,113.110802 
	C201.648193,113.727119 200.817490,114.343430 199.987671,115.010704 
	C199.987671,115.010704 199.949951,114.976395 199.211899,114.987099 
	C194.440155,114.987099 189.668396,114.987099 184.156250,114.987099 
	C186.728821,119.678169 184.661514,121.692062 181.360611,123.545280 
	C179.634384,124.514427 178.458435,126.463661 177.029572,128.037094 
	C177.029572,128.037094 176.963440,128.026428 176.194077,128.005920 
	C172.149017,128.891357 168.097656,129.749832 164.065643,130.691162 
	C163.456131,130.833450 162.593048,131.244705 162.428009,131.729324 
	C160.454681,137.523956 154.958389,137.662262 150.420670,139.277328 
	C143.988724,141.566605 142.894913,147.080536 149.096008,152.737579 
	C146.569595,152.494949 144.925507,152.781723 143.834991,152.135025 
	C141.873917,150.972092 140.307495,149.164352 138.451309,147.795303 
	C137.494720,147.089737 136.269409,146.748459 135.165512,146.242584 
	C134.790924,147.516235 134.361938,148.777100 134.058792,150.067535 
	C133.811340,151.120926 133.576355,152.209946 133.578873,153.282608 
	C133.584259,155.592865 133.515503,157.942368 133.903748,160.202515 
	C134.362656,162.873901 135.903778,165.471832 135.887878,168.095001 
	C135.724731,195.011993 135.372299,221.928116 134.976532,248.843079 
	C134.929718,252.025864 134.307938,255.200195 133.922348,258.649841 
	C134.662460,258.741089 135.784912,258.879456 137.293365,259.345398 
	C137.523117,259.592438 137.752853,259.839478 138.207855,260.722321 
	C138.363098,261.011200 138.474213,261.336853 138.680038,261.583557 
	C143.656647,267.548462 148.584152,273.636566 158.209961,270.708405 
	C159.404556,271.222687 160.599167,271.736969 162.151871,272.872070 
	C163.056290,275.739380 165.030762,276.627869 167.976303,277.259186 
	C171.030807,277.913879 174.543930,279.427612 176.482681,281.724976 
	C182.223999,288.528381 188.202759,290.877502 197.566055,288.590302 
	C197.723999,288.492584 197.881958,288.394867 198.550751,288.264404 
	C198.694641,288.172760 198.838547,288.081085 199.441208,287.451721 
	C199.740219,285.714111 200.220581,283.985077 200.303467,282.237213 
	C200.531281,277.433411 200.390579,272.604889 200.789291,267.818939 
	C201.061874,264.546722 202.523163,261.331512 202.535553,258.087341 
	C202.576782,247.273727 202.264252,236.456726 201.941559,225.645370 
	C201.873962,223.380371 201.185028,221.133911 200.732834,218.229309 
	C200.857376,217.817108 200.981903,217.404922 201.447037,216.245087 
	C202.003250,205.858139 202.559448,195.471176 203.125763,184.895691 
	C204.316086,184.895691 205.701569,184.895691 207.017578,184.895691 
	C207.645813,188.276825 208.711212,191.331848 208.696747,194.381760 
	C208.621201,210.315674 208.214264,226.247894 208.105438,242.181961 
	C208.094528,243.778336 209.313965,245.383118 210.481369,247.054810 
	C210.653946,247.029877 210.826538,247.004944 211.331116,247.442902 
	C215.677261,247.442902 220.023422,247.442902 225.167694,247.442902 
	C224.692459,244.335068 224.280518,241.641083 223.880447,238.873459 
	C223.880447,238.873459 223.954208,238.884644 224.718674,238.859238 
	C228.366852,238.245285 232.140610,237.814011 233.391144,232.945099 
	C233.391144,232.945099 233.821518,232.872833 234.511139,232.874512 
	C236.794434,232.455261 239.754929,232.797211 241.237656,231.478104 
	C246.256348,227.013245 245.987137,226.826019 249.078888,232.499725 
	C249.568314,233.397873 251.002060,233.781433 251.999191,234.402924 
	C252.420349,233.423843 253.117203,232.464432 253.188858,231.460434 
	C253.268127,230.349594 252.966507,229.110229 252.494476,228.081070 
	C251.242233,225.350708 252.712036,224.466751 255.034790,224.054108 
	C255.034790,224.054108 255.002045,223.998535 254.998657,223.213440 
	C255.020752,221.905792 255.042847,220.598145 255.351669,218.947205 
	C255.351669,218.947205 255.528427,218.536331 255.450409,218.453354 
M162.216675,280.350861 
	C162.460739,280.283569 162.704803,280.216278 162.948883,280.148987 
	C162.804077,279.951416 162.659271,279.753845 162.514450,279.556274 
	C162.356918,279.745697 162.199387,279.935120 162.216675,280.350861 
M194.501511,113.957634 
	C194.501511,113.957634 194.540131,113.993233 194.501511,113.957634 
z"/>
<path fill="#1AD577" opacity="1.000000" stroke="none" 
	d="
M245.703140,130.703339 
	C245.756500,131.028061 245.963760,131.218063 246.698364,131.530243 
	C249.040436,132.840408 251.009048,133.893723 253.219818,135.123306 
	C254.021225,135.501343 254.580521,135.703094 255.091843,135.916382 
	C255.043884,135.927902 255.021179,135.831894 255.229614,136.049454 
	C255.986069,136.495804 256.534119,136.724579 257.049927,136.965286 
	C257.017670,136.977203 256.998108,136.911285 257.214081,137.123230 
	C257.991089,137.533371 258.552124,137.731598 259.085876,137.931564 
	C259.058594,137.933304 259.080994,137.883469 259.300232,138.179932 
	C260.403870,141.208588 262.031097,143.934158 262.055603,146.674042 
	C262.256378,169.157455 262.158875,191.643539 262.130066,214.128784 
	C262.108215,214.128738 262.084534,214.090256 261.756348,214.119263 
	C260.640106,214.819824 259.852020,215.491379 259.072815,216.122620 
	C259.081696,216.082291 259.162262,216.100525 258.825745,216.142578 
	C257.482544,216.978302 256.475922,217.771988 255.469269,218.565674 
	C255.469269,218.565674 255.450409,218.453354 255.212799,218.534424 
	C254.669724,218.817169 254.364258,219.018860 253.847748,219.480713 
	C247.031631,224.118179 240.426575,228.495499 233.821518,232.872833 
	C233.821518,232.872833 233.391144,232.945099 232.859528,233.093719 
	C229.536667,235.123108 226.745438,237.003876 223.954208,238.884644 
	C223.954208,238.884644 223.880447,238.873459 223.534805,238.945862 
	C220.844666,240.392319 218.500168,241.766373 215.754700,243.101761 
	C214.133636,241.980667 212.250488,241.103760 211.837402,239.771149 
	C211.078293,237.322311 211.042953,234.609741 210.958130,231.998917 
	C210.740417,225.296692 210.660889,218.589966 210.503128,211.424591 
	C210.527756,201.054077 210.575394,191.144012 210.829620,180.967377 
	C210.728836,178.462585 210.421463,176.224396 210.067230,173.986542 
	C210.020370,173.986908 210.018417,173.893188 209.877655,173.608826 
	C208.787567,172.913437 207.838226,172.502426 206.915482,172.070572 
	C206.942078,172.049744 206.943848,172.117294 206.749542,171.827087 
	C205.015411,171.032028 203.475586,170.527191 201.964844,170.006226 
	C201.993927,169.990112 202.018600,170.051895 201.808212,169.847687 
	C201.067490,169.437454 200.537140,169.231445 199.634628,169.015167 
	C181.877319,161.387741 164.492188,153.770554 146.366089,145.828720 
	C157.085938,139.591644 167.024689,133.809036 176.963440,128.026428 
	C176.963440,128.026428 177.029572,128.037094 177.375000,127.935165 
	C185.130280,123.547630 192.540115,119.262016 199.949951,114.976395 
	C199.949951,114.976395 199.987671,115.010704 200.311157,114.984055 
	C201.468613,114.328224 202.302567,113.699043 203.136520,113.069862 
	C204.167419,113.023941 205.198318,112.978012 206.773224,113.220345 
	C207.872513,113.650391 208.427780,113.792191 208.983047,113.933983 
	C208.983047,113.933983 209.011902,114.025490 209.275177,114.280487 
	C221.005585,119.707916 232.472748,124.880348 243.939896,130.052780 
	C243.939896,130.052780 243.980270,130.006256 244.082886,130.278198 
	C244.691376,130.601212 245.197250,130.652283 245.703140,130.703339 
z"/>
<path fill="#021204" opacity="1.000000" stroke="none" 
	d="
M176.578766,128.016174 
	C167.024689,133.809036 157.085938,139.591644 146.366089,145.828720 
	C164.492188,153.770554 181.877319,161.387741 199.857712,169.202026 
	C200.974854,169.616730 201.496719,169.834320 202.018600,170.051895 
	C202.018600,170.051895 201.993927,169.990112 202.056427,170.215332 
	C202.118927,170.440567 202.259720,170.874603 201.850281,170.896301 
	C199.296722,170.918015 197.152603,170.918015 193.972504,170.918015 
	C196.846909,174.064697 199.015961,176.439224 201.117462,178.880753 
	C201.049911,178.947754 200.914490,179.081467 200.561813,179.000854 
	C198.830399,178.343216 197.450089,177.769913 196.073166,177.188553 
	C182.376221,171.405518 168.679840,165.621155 154.938416,159.753448 
	C154.893539,159.669769 154.714828,159.735550 154.442535,159.476410 
	C148.940659,156.963409 143.711090,154.709549 137.159210,151.885803 
	C137.159210,172.731354 137.159210,192.360199 137.092514,212.455109 
	C137.064178,227.946304 137.102539,242.971420 137.069489,258.248901 
	C136.967850,258.673431 136.937607,258.845612 136.907364,259.017822 
	C135.784912,258.879456 134.662460,258.741089 133.922348,258.649841 
	C134.307938,255.200195 134.929718,252.025864 134.976532,248.843079 
	C135.372299,221.928116 135.724731,195.011993 135.887878,168.095001 
	C135.903778,165.471832 134.362656,162.873901 133.903748,160.202515 
	C133.515503,157.942368 133.584259,155.592865 133.578873,153.282608 
	C133.576355,152.209946 133.811340,151.120926 134.058792,150.067535 
	C134.361938,148.777100 134.790924,147.516235 135.165512,146.242584 
	C136.269409,146.748459 137.494720,147.089737 138.451309,147.795303 
	C140.307495,149.164352 141.873917,150.972092 143.834991,152.135025 
	C144.925507,152.781723 146.569595,152.494949 149.096008,152.737579 
	C142.894913,147.080536 143.988724,141.566605 150.420670,139.277328 
	C154.958389,137.662262 160.454681,137.523956 162.428009,131.729324 
	C162.593048,131.244705 163.456131,130.833450 164.065643,130.691162 
	C168.097656,129.749832 172.149017,128.891357 176.578766,128.016174 
z"/>
<path fill="#2DBF77" opacity="1.000000" stroke="none" 
	d="
M154.983292,159.837143 
	C168.679840,165.621155 182.376221,171.405518 196.073166,177.188553 
	C197.450089,177.769913 198.830399,178.343216 200.618011,179.461517 
	C201.053406,192.332764 201.079910,204.662735 201.106430,216.992722 
	C200.981903,217.404922 200.857376,217.817108 200.436417,218.685425 
	C199.783936,233.440552 199.427887,247.739578 198.830292,262.038483 
	C198.588760,262.038361 198.105698,262.042206 198.076569,261.569946 
	C198.032623,252.767944 197.797379,244.431122 198.065201,236.110504 
	C198.330948,227.854034 199.280640,219.620712 199.599426,211.364471 
	C199.874512,204.240250 200.059662,197.073044 199.586105,189.971436 
	C199.177536,183.844559 197.867325,177.987534 189.906799,176.780777 
	C186.091599,176.202377 182.452347,174.326660 178.793228,172.886536 
	C172.996994,170.605316 167.111511,168.477432 161.546387,165.715302 
	C159.010803,164.456818 157.150101,161.838623 154.983292,159.837143 
z"/>
<path fill="#021204" opacity="1.000000" stroke="none" 
	d="
M201.276733,216.618896 
	C201.079910,204.662735 201.053406,192.332764 200.970703,179.542114 
	C200.914490,179.081467 201.049911,178.947754 201.402435,179.051727 
	C203.353485,179.343124 204.952011,179.530533 206.550522,179.717957 
	C206.190765,178.170547 205.892761,176.605270 205.451904,175.081314 
	C205.093018,173.840698 204.563080,172.649567 204.460846,171.539978 
	C205.523087,171.801392 206.233459,171.959351 206.943848,172.117294 
	C206.943848,172.117294 206.942078,172.049744 207.121887,172.298584 
	C208.207260,172.996002 209.112839,173.444595 210.018417,173.893188 
	C210.018417,173.893188 210.020370,173.986908 210.075317,174.437164 
	C210.294510,177.002930 210.458771,179.118439 210.623032,181.233963 
	C210.575394,191.144012 210.527756,201.054077 210.355499,211.885681 
	C210.141388,224.199509 210.051895,235.591751 209.962402,246.984009 
	C209.313965,245.383118 208.094528,243.778336 208.105438,242.181961 
	C208.214264,226.247894 208.621201,210.315674 208.696747,194.381760 
	C208.711212,191.331848 207.645813,188.276825 207.017578,184.895691 
	C205.701569,184.895691 204.316086,184.895691 203.125763,184.895691 
	C202.559448,195.471176 202.003250,205.858139 201.276733,216.618896 
z"/>
<path fill="#021204" opacity="1.000000" stroke="none" 
	d="
M199.071808,262.038605 
	C199.427887,247.739578 199.783936,233.440552 200.461212,219.010223 
	C201.185028,221.133911 201.873962,223.380371 201.941559,225.645370 
	C202.264252,236.456726 202.576782,247.273727 202.535553,258.087341 
	C202.523163,261.331512 201.061874,264.546722 200.789291,267.818939 
	C200.390579,272.604889 200.531281,277.433411 200.303467,282.237213 
	C200.220581,283.985077 199.740219,285.714111 199.132385,287.258423 
	C198.906326,278.722961 198.989059,270.380798 199.071808,262.038605 
z"/>
<path fill="#37A069" opacity="1.000000" stroke="none" 
	d="
M262.151947,214.128815 
	C262.158875,191.643539 262.256378,169.157455 262.055603,146.674042 
	C262.031097,143.934158 260.403870,141.208588 259.653473,138.189972 
	C261.105133,138.378815 262.422760,138.854080 263.740387,139.329330 
	C263.740387,139.329330 263.743713,139.250320 263.833557,139.686600 
	C263.954773,152.425980 263.986176,164.729095 264.017578,177.032196 
	C263.965942,177.465637 263.914368,177.899078 263.826019,179.110138 
	C263.859436,183.932968 263.929626,187.978149 263.999817,192.023346 
	C263.863586,197.332932 263.727356,202.642517 263.472473,208.729355 
	C262.953186,211.047348 262.552551,212.588074 262.151947,214.128815 
z"/>
<path fill="#021204" opacity="1.000000" stroke="none" 
	d="
M197.011261,288.538605 
	C188.202759,290.877502 182.223999,288.528381 176.482681,281.724976 
	C174.543930,279.427612 171.030807,277.913879 167.976303,277.259186 
	C165.030762,276.627869 163.056290,275.739380 162.060211,272.455383 
	C161.968552,272.038696 162.145920,271.828339 162.502563,271.883972 
	C164.901184,272.698547 166.943161,273.457520 168.988312,274.126770 
	C168.991486,274.037018 168.811981,274.030792 168.943298,274.301941 
	C169.444427,274.695221 169.814209,274.817322 170.277878,275.026520 
	C170.371765,275.113617 170.627487,275.099365 170.836395,275.380066 
	C171.703979,275.864960 172.362671,276.069092 172.960785,276.182312 
	C172.900208,276.091400 172.718628,276.212921 172.923233,276.494690 
	C176.135254,278.158539 179.142654,279.540619 182.277390,281.010559 
	C182.404709,281.098389 182.713623,281.081940 182.933105,281.333405 
	C183.779465,281.787140 184.406326,281.989380 184.999222,282.117615 
	C184.965256,282.043549 184.817261,282.111725 185.033875,282.387451 
	C187.821121,283.821625 190.391754,284.980103 192.980743,286.092010 
	C192.999115,286.045441 192.905975,286.008789 193.000961,286.301239 
	C193.473938,286.709869 193.851944,286.826080 194.365509,287.061340 
	C194.799408,287.332001 195.097748,287.483582 195.801727,287.857727 
	C196.475327,288.233093 196.743301,288.385864 197.011261,288.538605 
z"/>
<path fill="#021204" opacity="1.000000" stroke="none" 
	d="
M234.166321,232.873672 
	C240.426575,228.495499 247.031631,224.118179 254.100220,219.487595 
	C254.730789,219.253067 254.897873,219.271790 255.064941,219.290497 
	C255.042847,220.598145 255.020752,221.905792 254.999329,223.606720 
	C255.000000,224.000000 254.998581,224.001984 254.998581,224.001984 
	C252.712036,224.466751 251.242233,225.350708 252.494476,228.081070 
	C252.966507,229.110229 253.268127,230.349594 253.188858,231.460434 
	C253.117203,232.464432 252.420349,233.423843 251.999191,234.402924 
	C251.002060,233.781433 249.568314,233.397873 249.078888,232.499725 
	C245.987137,226.826019 246.256348,227.013245 241.237656,231.478104 
	C239.754929,232.797211 236.794434,232.455261 234.166321,232.873672 
z"/>
<path fill="#021204" opacity="1.000000" stroke="none" 
	d="
M243.802475,129.748383 
	C232.472748,124.880348 221.005585,119.707916 209.320923,114.266098 
	C210.899307,114.193863 212.711945,114.295761 214.487549,114.608162 
	C218.075241,115.239372 221.642822,115.984879 224.533600,116.549446 
	C226.483398,118.339142 228.292587,121.413704 230.133331,121.432724 
	C236.461639,121.498116 239.602020,126.075928 243.802475,129.748383 
z"/>
<path fill="#021204" opacity="1.000000" stroke="none" 
	d="
M199.580933,114.981750 
	C192.540115,119.262016 185.130280,123.547630 177.377197,127.901749 
	C178.458435,126.463661 179.634384,124.514427 181.360611,123.545280 
	C184.661514,121.692062 186.728821,119.678169 184.156250,114.987099 
	C189.668396,114.987099 194.440155,114.987099 199.580933,114.981750 
z"/>
<path fill="#021204" opacity="1.000000" stroke="none" 
	d="
M157.798676,270.193115 
	C148.584152,273.636566 143.656647,267.548462 138.680038,261.583557 
	C138.474213,261.336853 138.363098,261.011200 138.457947,260.419189 
	C141.989716,261.597961 145.271378,263.079865 148.575958,264.552460 
	C148.598862,264.543182 148.596313,264.493134 148.866333,264.705505 
	C151.411301,266.001373 153.686249,267.084900 155.953201,268.118347 
	C155.945190,268.068298 155.845139,268.084686 155.996368,268.345093 
	C156.799332,269.028717 157.451050,269.451965 158.026703,269.954651 
	C157.950623,270.034088 157.798676,270.193115 157.798676,270.193115 
z"/>
<path fill="#021204" opacity="1.000000" stroke="none" 
	d="
M264.325989,176.806976 
	C263.986176,164.729095 263.954773,152.425980 263.794006,139.685699 
	C264.432526,140.565552 265.841431,141.870743 265.866028,143.201508 
	C266.049316,153.123276 266.003204,163.050583 265.895325,172.974716 
	C265.882202,174.181488 265.074066,175.379623 264.325989,176.806976 
z"/>
<path fill="#021204" opacity="1.000000" stroke="none" 
	d="
M216.155655,243.140411 
	C218.500168,241.766373 220.844666,240.392319 223.528870,238.982681 
	C224.280518,241.641083 224.692459,244.335068 225.167694,247.442902 
	C220.023422,247.442902 215.677261,247.442902 211.331894,246.928925 
	C212.940323,245.323425 214.547989,244.231918 216.155655,243.140411 
z"/>
<path fill="#379562" opacity="1.000000" stroke="none" 
	d="
M215.754700,243.101761 
	C214.547989,244.231918 212.940323,245.323425 211.165909,246.697479 
	C210.826538,247.004944 210.653946,247.029877 210.221893,247.019409 
	C210.051895,235.591751 210.141388,224.199509 210.378510,212.346146 
	C210.660889,218.589966 210.740417,225.296692 210.958130,231.998917 
	C211.042953,234.609741 211.078293,237.322311 211.837402,239.771149 
	C212.250488,241.103760 214.133636,241.980667 215.754700,243.101761 
z"/>
<path fill="#021204" opacity="1.000000" stroke="none" 
	d="
M263.644989,138.999084 
	C262.422760,138.854080 261.105133,138.378815 259.434265,137.893524 
	C259.080994,137.883469 259.058594,137.933304 258.908997,137.675018 
	C258.172272,137.248245 257.585205,137.079773 256.998108,136.911285 
	C256.998108,136.911285 257.017670,136.977203 256.905579,136.684418 
	C256.202698,136.205048 255.611938,136.018478 255.021179,135.831909 
	C255.021179,135.831894 255.043884,135.927902 254.921753,135.642456 
	C254.192291,135.220337 253.584991,135.083679 252.977676,134.947021 
	C251.009048,133.893723 249.040436,132.840408 246.852676,131.512589 
	C249.454666,129.679962 251.782700,130.182907 254.290421,132.300522 
	C257.138489,134.705521 260.443329,136.569611 263.644989,138.999084 
z"/>
<path fill="#021204" opacity="1.000000" stroke="none" 
	d="
M262.130066,214.128784 
	C262.552551,212.588074 262.953186,211.047348 263.513611,209.187592 
	C264.765625,210.272751 267.064819,212.481323 266.752747,212.949585 
	C264.832703,215.830536 262.691315,218.978485 258.263489,217.537354 
	C258.528992,216.816528 258.845612,216.458527 259.162262,216.100525 
	C259.162262,216.100525 259.081696,216.082291 259.385010,216.043869 
	C260.487061,215.367050 261.285797,214.728668 262.084534,214.090271 
	C262.084534,214.090256 262.108215,214.128738 262.130066,214.128784 
z"/>
<path fill="#3EB575" opacity="1.000000" stroke="none" 
	d="
M198.830292,262.038483 
	C198.989059,270.380798 198.906326,278.722961 198.903015,287.527283 
	C198.838547,288.081085 198.694641,288.172760 198.252930,287.889832 
	C197.901291,286.995972 197.847473,286.476654 197.822647,285.492126 
	C197.936340,277.365326 198.021027,269.703766 198.105713,262.042206 
	C198.105698,262.042206 198.588760,262.038361 198.830292,262.038483 
z"/>
<path fill="#41BC7D" opacity="1.000000" stroke="none" 
	d="
M148.553040,264.561737 
	C145.271378,263.079865 141.989716,261.597961 138.345322,260.101288 
	C137.752853,259.839478 137.523117,259.592438 137.100372,259.181610 
	C136.937607,258.845612 136.967850,258.673431 137.306152,258.243408 
	C137.614197,257.985565 138.087357,257.969940 138.410904,258.125488 
	C142.007309,260.374634 145.280182,262.468170 148.553040,264.561737 
z"/>
<path fill="#021204" opacity="1.000000" stroke="none" 
	d="
M224.336441,238.871948 
	C226.745438,237.003876 229.536667,235.123108 232.669296,233.200623 
	C232.140610,237.814011 228.366852,238.245285 224.336441,238.871948 
z"/>
<path fill="#021204" opacity="1.000000" stroke="none" 
	d="
M264.186646,191.659332 
	C263.929626,187.978149 263.859436,183.932968 263.896301,179.431992 
	C264.126678,183.082581 264.250061,187.188950 264.186646,191.659332 
z"/>
<path fill="#021204" opacity="1.000000" stroke="none" 
	d="
M161.881165,272.144958 
	C160.599167,271.736969 159.404556,271.222687 158.004318,270.450745 
	C157.798676,270.193115 157.950623,270.034088 158.355148,269.995850 
	C159.888428,270.581207 161.017166,271.204773 162.145920,271.828339 
	C162.145920,271.828339 161.968552,272.038696 161.881165,272.144958 
z"/>
<path fill="#021204" opacity="1.000000" stroke="none" 
	d="
M162.129272,280.237701 
	C162.199387,279.935120 162.356918,279.745697 162.514465,279.556274 
	C162.659271,279.753845 162.804077,279.951416 162.948883,280.148987 
	C162.704803,280.216278 162.460739,280.283569 162.129272,280.237701 
z"/>
<path fill="#021204" opacity="1.000000" stroke="none" 
	d="
M202.807709,113.090332 
	C202.302567,113.699043 201.468613,114.328224 200.310730,114.958572 
	C200.817490,114.343430 201.648193,113.727119 202.807709,113.090332 
z"/>
<path fill="#37A069" opacity="1.000000" stroke="none" 
	d="
M258.825745,216.142578 
	C258.845612,216.458527 258.528992,216.816528 258.011444,217.319946 
	C257.235809,217.756470 256.661102,218.047577 255.777832,218.452179 
	C256.475922,217.771988 257.482544,216.978302 258.825745,216.142578 
z"/>
<path fill="#41BC7D" opacity="1.000000" stroke="none" 
	d="
M197.793640,285.957367 
	C197.847473,286.476654 197.901291,286.995972 197.997513,287.906189 
	C197.881958,288.394867 197.723999,288.492584 197.288666,288.564453 
	C196.743301,288.385864 196.475327,288.233093 196.024124,287.651184 
	C196.491821,286.800507 197.142746,286.378937 197.793640,285.957367 
z"/>
<path fill="#021204" opacity="1.000000" stroke="none" 
	d="
M208.907730,113.721497 
	C208.427780,113.792191 207.872513,113.650391 207.160919,113.260765 
	C207.613861,113.178291 208.223129,113.343643 208.907730,113.721497 
z"/>
<path fill="#021204" opacity="1.000000" stroke="none" 
	d="
M194.520813,113.975433 
	C194.540131,113.993233 194.501511,113.957634 194.520813,113.975433 
z"/>
<path fill="#021204" opacity="1.000000" stroke="none" 
	d="
M255.001022,223.999268 
	C255.002045,223.998535 255.034790,224.054108 255.016693,224.028046 
	C254.998581,224.001984 255.000000,224.000000 255.001022,223.999268 
z"/>
<path fill="#37A069" opacity="1.000000" stroke="none" 
	d="
M255.208313,219.118851 
	C254.897873,219.271790 254.730789,219.253067 254.311249,219.227448 
	C254.364258,219.018860 254.669724,218.817169 255.251801,218.575897 
	C255.528427,218.536331 255.351669,218.947205 255.208313,219.118851 
z"/>
<path fill="#021204" opacity="1.000000" stroke="none" 
	d="
M245.271881,130.525452 
	C245.197250,130.652283 244.691376,130.601212 244.069458,130.304413 
	C244.249176,130.154984 244.544891,130.251266 245.271881,130.525452 
z"/>
<path fill="#379562" opacity="1.000000" stroke="none" 
	d="
M210.829620,180.967377 
	C210.458771,179.118439 210.294510,177.002930 210.122162,174.436798 
	C210.421463,176.224396 210.728836,178.462585 210.829620,180.967377 
z"/>
<path fill="#379562" opacity="1.000000" stroke="none" 
	d="
M206.749542,171.827087 
	C206.233459,171.959351 205.523087,171.801392 204.245361,171.430511 
	C203.205246,171.103256 202.732483,170.988937 202.259720,170.874603 
	C202.259720,170.874603 202.118927,170.440567 202.027344,170.231461 
	C203.475586,170.527191 205.015411,171.032028 206.749542,171.827087 
z"/>
<path fill="#37A069" opacity="1.000000" stroke="none" 
	d="
M261.756348,214.119278 
	C261.285797,214.728668 260.487061,215.367050 259.376160,216.084198 
	C259.852020,215.491379 260.640106,214.819824 261.756348,214.119278 
z"/>
<path fill="#379562" opacity="1.000000" stroke="none" 
	d="
M209.877655,173.608826 
	C209.112839,173.444595 208.207260,172.996002 207.095276,172.319397 
	C207.838226,172.502426 208.787567,172.913437 209.877655,173.608826 
z"/>
<path fill="#379562" opacity="1.000000" stroke="none" 
	d="
M201.808212,169.847687 
	C201.496719,169.834320 200.974854,169.616730 200.229889,169.212280 
	C200.537140,169.231445 201.067490,169.437454 201.808212,169.847687 
z"/>
<path fill="#37A069" opacity="1.000000" stroke="none" 
	d="
M257.214081,137.123230 
	C257.585205,137.079773 258.172272,137.248245 258.936279,137.673279 
	C258.552124,137.731598 257.991089,137.533371 257.214081,137.123230 
z"/>
<path fill="#37A069" opacity="1.000000" stroke="none" 
	d="
M255.229614,136.049469 
	C255.611938,136.018478 256.202698,136.205048 256.937805,136.672485 
	C256.534119,136.724579 255.986069,136.495804 255.229614,136.049469 
z"/>
<path fill="#37A069" opacity="1.000000" stroke="none" 
	d="
M253.219818,135.123306 
	C253.584991,135.083679 254.192291,135.220337 254.969696,135.630920 
	C254.580521,135.703094 254.021225,135.501343 253.219818,135.123306 
z"/>
<path fill="#19D777" opacity="1.000000" stroke="none" 
	d="
M197.822662,285.492126 
	C197.142746,286.378937 196.491821,286.800507 195.618500,287.428619 
	C195.097748,287.483582 194.799408,287.332001 194.165771,286.873596 
	C193.522293,286.380768 193.214127,286.194794 192.905975,286.008789 
	C192.905975,286.008789 192.999115,286.045441 192.886673,285.746216 
	C190.121902,284.335266 187.469574,283.223511 184.817261,282.111755 
	C184.817261,282.111725 184.965256,282.043549 184.750793,281.901337 
	C183.928772,281.533386 183.321198,281.307648 182.713623,281.081940 
	C182.713623,281.081940 182.404709,281.098389 182.130188,280.690552 
	C178.809998,278.926117 175.764313,277.569519 172.718628,276.212921 
	C172.718628,276.212921 172.900208,276.091400 172.703659,275.958374 
	C171.880569,275.583374 171.254028,275.341370 170.627487,275.099365 
	C170.627487,275.099365 170.371765,275.113617 170.069855,274.842102 
	C169.449295,274.390656 169.130630,274.210724 168.811981,274.030792 
	C168.811981,274.030792 168.991486,274.037018 168.806900,273.827026 
	C165.169617,269.910614 160.930191,268.021179 155.845139,268.084686 
	C155.845139,268.084686 155.945190,268.068298 155.833252,267.786133 
	C153.346313,266.500366 150.971313,265.496765 148.596313,264.493134 
	C148.596313,264.493134 148.598862,264.543182 148.575958,264.552460 
	C145.280182,262.468170 142.007309,260.374634 138.401825,257.659790 
	C138.072464,242.027145 138.075729,227.015762 138.242737,211.627075 
	C138.600510,209.106827 138.952408,206.964630 138.962418,204.820862 
	C139.019196,192.667130 138.914078,180.512024 139.061066,168.359772 
	C139.092407,165.768845 139.801041,163.152771 140.446091,160.611328 
	C141.205002,157.621201 142.829208,156.746384 146.019928,158.027374 
	C148.712799,159.108475 151.801392,159.203873 154.714828,159.735565 
	C154.714828,159.735550 154.893539,159.669769 154.938416,159.753448 
	C157.150101,161.838623 159.010803,164.456818 161.546387,165.715302 
	C167.111511,168.477432 172.996994,170.605316 178.793228,172.886536 
	C182.452347,174.326660 186.091599,176.202377 189.906799,176.780777 
	C197.867325,177.987534 199.177536,183.844559 199.586105,189.971436 
	C200.059662,197.073044 199.874512,204.240250 199.599426,211.364471 
	C199.280640,219.620712 198.330948,227.854034 198.065201,236.110504 
	C197.797379,244.431122 198.032623,252.767944 198.076584,261.569946 
	C198.021027,269.703766 197.936340,277.365326 197.822662,285.492126 
z"/>
<path fill="#2DBF77" opacity="1.000000" stroke="none" 
	d="
M154.442535,159.476410 
	C151.801392,159.203873 148.712799,159.108475 146.019928,158.027374 
	C142.829208,156.746384 141.205002,157.621201 140.446091,160.611328 
	C139.801041,163.152771 139.092407,165.768845 139.061066,168.359772 
	C138.914078,180.512024 139.019196,192.667130 138.962418,204.820862 
	C138.952408,206.964630 138.600510,209.106827 138.012482,211.622696 
	C137.618454,211.995651 137.159210,211.989044 137.159210,211.989044 
	C137.159210,192.360199 137.159210,172.731354 137.159210,151.885803 
	C143.711090,154.709549 148.940659,156.963409 154.442535,159.476410 
z"/>
<path fill="#000000" opacity="1.000000" stroke="none" 
	d="
M201.850281,170.896301 
	C202.732483,170.988937 203.205246,171.103256 203.893494,171.327026 
	C204.563080,172.649567 205.093018,173.840698 205.451904,175.081314 
	C205.892761,176.605270 206.190765,178.170547 206.550522,179.717957 
	C204.952011,179.530533 203.353485,179.343124 201.470001,178.984726 
	C199.015961,176.439224 196.846909,174.064697 193.972504,170.918015 
	C197.152603,170.918015 199.296722,170.918015 201.850281,170.896301 
z"/>
<path fill="#41BF82" opacity="1.000000" stroke="none" 
	d="
M137.092514,212.455109 
	C137.159210,211.989044 137.618454,211.995651 137.848724,212.000031 
	C138.075729,227.015762 138.072464,242.027145 138.078278,257.504211 
	C138.087357,257.969940 137.614197,257.985565 137.377548,257.991058 
	C137.102539,242.971420 137.064178,227.946304 137.092514,212.455109 
z"/>
<path fill="#41BC7D" opacity="1.000000" stroke="none" 
	d="
M155.996368,268.345093 
	C160.930191,268.021179 165.169617,269.910614 168.803726,273.916779 
	C166.943161,273.457520 164.901184,272.698547 162.502563,271.883972 
	C161.017166,271.204773 159.888428,270.581207 158.431213,269.916443 
	C157.451050,269.451965 156.799332,269.028717 155.996368,268.345093 
z"/>
<path fill="#41BC7D" opacity="1.000000" stroke="none" 
	d="
M172.923233,276.494690 
	C175.764313,277.569519 178.809998,278.926117 182.002869,280.602722 
	C179.142654,279.540619 176.135254,278.158539 172.923233,276.494690 
z"/>
<path fill="#41BC7D" opacity="1.000000" stroke="none" 
	d="
M185.033875,282.387451 
	C187.469574,283.223511 190.121902,284.335266 192.868317,285.792786 
	C190.391754,284.980103 187.821121,283.821625 185.033875,282.387451 
z"/>
<path fill="#41BC7D" opacity="1.000000" stroke="none" 
	d="
M170.836395,275.380066 
	C171.254028,275.341370 171.880569,275.583374 172.764236,276.049316 
	C172.362671,276.069092 171.703979,275.864960 170.836395,275.380066 
z"/>
<path fill="#41BC7D" opacity="1.000000" stroke="none" 
	d="
M182.933105,281.333405 
	C183.321198,281.307648 183.928772,281.533386 184.784760,281.975403 
	C184.406326,281.989380 183.779465,281.787140 182.933105,281.333405 
z"/>
<path fill="#41BC7D" opacity="1.000000" stroke="none" 
	d="
M168.943298,274.301941 
	C169.130630,274.210724 169.449295,274.390656 169.975983,274.755005 
	C169.814209,274.817322 169.444427,274.695221 168.943298,274.301941 
z"/>
<path fill="#41BC7D" opacity="1.000000" stroke="none" 
	d="
M193.000961,286.301239 
	C193.214127,286.194794 193.522293,286.380768 194.030197,286.754517 
	C193.851944,286.826080 193.473938,286.709869 193.000961,286.301239 
z"/>
<path fill="#41BC7D" opacity="1.000000" stroke="none" 
	d="
M148.866333,264.705505 
	C150.971313,265.496765 153.346313,266.500366 155.841263,267.836182 
	C153.686249,267.084900 151.411301,266.001373 148.866333,264.705505 
z"/>
</svg>